# AST/ASF file generated using VICON BodyLanguage
# -----------------------------------------------
:version 1.10
:name VICON
:units
  mass 1.0
  length 0.45
  angle deg
:documentation
   .ast/.asf automatically generated from VICON data using
   VICON BodyBuilder and BodyLanguage model FoxedUp or BRILLIANT.MOD
:root
   order TX TY TZ RX RY RZ
   axis XYZ
   position 0 0 0  
   orientation 0 0 0 
:bonedata
  begin
     id 1 
     name lhipjoint
     direction 0.54267 -0.795011 0.271047 
     length 2.39899 
     axis 0 0 0  XYZ
  end
  begin
     id 2 
     name lfemur
     direction 0.34202 -0.939693 0  
     length 7.49701  
     axis 0 0 20  XYZ
    dof rx ry rz
    limits (-160.0 20.0)
           (-70.0 70.0)
           (-60.0 70.0)
  end
  begin
     id 3 
     name ltibia
     direction 0.34202 -0.939693 0   
     length 8.1668   
     axis 0 0 20   XYZ
    dof rx
    limits (-10.0 170.0)
  end
  begin
     id 4 
     name lfoot
     direction 0.0736283 -0.202292 0.976554   
     length 2.13544   
     axis -90 7.62852e-016 20   XYZ
    dof rx rz
    limits (-45.0 90.0)
           (-70.0 20.0)
  end
  begin
     id 5 
     name ltoes
     direction 1.53557e-011 -4.22024e-011 1   
     length 1.07411   
     axis -90 7.62852e-016 20   XYZ
    dof rx
    limits (-90.0 20.0)
  end
  begin
     id 6 
     name rhipjoint
     direction -0.538061 -0.797813 0.272002   
     length 2.39057  
     axis 0 0 0  XYZ 
  end
  begin
     id 7 
     name rfemur
     direction -0.34202 -0.939693 0   
     length 7.50152   
     axis 0 0 -20   XYZ
    dof rx ry rz
    limits (-160.0 20.0)
           (-70.0 70.0)
           (-70.0 60.0)
  end
  begin
     id 8 
     name rtibia
     direction -0.34202 -0.939693 0   
     length 8.05793   
     axis 0 0 -20   XYZ
    dof rx
    limits (-10.0 170.0)
 end
 begin
     id 9 
     name rfoot
     direction -0.0765195 -0.210236 0.974652   
     length 2.28698  
     axis -90 -7.62852e-016 -20   XYZ
    dof rx rz
    limits (-45.0 90.0)
           (-20.0 70.0)
  end
  begin
     id 10 
     name rtoes
     direction -1.53542e-011 -4.21847e-011 1   
     length 1.14762   
     axis -90 -7.62852e-016 -20   XYZ
    dof rx
    limits (-90.0 20.0)
  end
  begin
     id 11 
     name lowerback
     direction -0.0217239 0.996592 -0.0795765   
     length 2.08176   
     axis 0 0 0   XYZ
    dof rx ry rz
    limits (-20.0 45.0)
           (-30.0 30.0)
           (-30.0 30.0)
  end
  begin
     id 12 
     name upperback
     direction -0.00563773 0.999651 -0.0258155   
     length 2.08898   
     axis 0 0 0   XYZ
    dof rx ry rz
    limits (-20.0 45.0)
           (-30.0 30.0)
           (-30.0 30.0)
  end
  begin
     id 13 
     name thorax
     direction 0.0032706 0.999923 0.0119599   
     length 2.0968   
     axis 0 0 0   XYZ
    dof rx ry rz
    limits (-20.0 45.0)
           (-30.0 30.0)
           (-30.0 30.0)
  end
  begin
     id 14 
     name lowerneck
     direction -0.0285886 0.99568 0.0883427   
     length 1.81272   
     axis 0 0 0   XYZ
    dof rx ry rz
    limits (-20.0 45.0)
           (-30.0 30.0)
           (-30.0 30.0)
  end
  begin
     id 15 
     name upperneck
     direction 0.0807535 0.97985 -0.18268   
     length 1.82518   
     axis 0 0 0   XYZ
    dof rx ry rz
    limits (-20.0 45.0)
           (-30.0 30.0)
           (-30.0 30.0)
  end
  begin
     id 16
     name head
     direction 0.0236605 0.997053 -0.0729767  
     length 1.84443  
     axis 0 0 0   XYZ
    dof rx ry rz
    limits (-20.0 45.0)
           (-30.0 30.0)
           (-30.0 30.0)
  end
  begin
     id 17 
     name lclavicle
     direction 0.918986 0.39378 -0.0200683  
     length 3.27822  
     axis 0 0 0   XYZ
    dof ry rz
    limits (-20.0 10.0)
           (0.0 20.0)
  end
  begin
     id 18 
     name lhumerus
     direction 1 -4.4897e-011 2.09544e-027   
     length 5.5568   
     axis 180 -30 -90   XYZ
    dof rx ry rz
    limits (-60.0 90.0)
           (-90.0 90.0)
           (-90.0 90.0)
  end
  begin
     id 19
     name lradius
     direction 1 -4.48957e-011 -1.27696e-026   
     length 3.63979   
     axis 180 -30 -90   XYZ
    dof rx
    limits (-10.0 170.0)
  end
  begin
     id 20
     name lwrist
     direction 1 -4.49001e-011 -1.49001e-026   
     length 1.8199   
     axis 9.0955e-015 90 90   XYZ
    dof ry
    limits (-180.0 0.0)
 end
  begin
     id 21 
     name lhand
     direction 1 -4.48709e-011 -2.9758e-026   
     length 0.569419   
     axis 1.90115e-014 90 90   XYZ
    dof rx rz
    limits (-90.0 90.0)
           (-45.0 45.0)
  end
  begin
     id 22 
     name lfingers
     direction 1 -4.49175e-011 -5.96505e-026   
     length 0.45908   
     axis 3.80223e-014 90 90   XYZ
    dof rx
    limits (0.0 90.0)
  end
  begin
     id 23
     name lthumb
     direction 0.707107 -6.34864e-011 0.707107   
     length 0.65915   
     axis -90 45 -3.84942e-014   XYZ
    dof rx rz
    limits (-45.0 45.0)
           (-45.0 45.0)
  end
  begin
     id 24 
     name rclavicle
     direction -0.911913 0.396426 -0.106115   
     length 3.46301  
     axis 0 0 0   XYZ 
    dof ry rz
    limits (-10.0 20.0)
           (-20.0 0.0)
  end
  begin
     id 25 
     name rhumerus
     direction -1 -4.48965e-011 7.78516e-028  
     length 5.34339   
     axis 180 30 90   XYZ
    dof rx ry rz
    limits (-90.0 60.0)
           (-90.0 90.0)
           (-90.0 90.0)
  end
  begin
     id 26 
     name rradius
     direction -1 -4.48948e-011 -5.79823e-027   
     length 3.65101   
     axis 180 30 90   XYZ
    dof rx
    limits (-10.0 170.0)
  end
  begin
     id 27 
     name rwrist
     direction -1 -4.48995e-011 -1.48996e-026   
     length 1.8255   
     axis 9.0955e-015 -90 -90   XYZ
    dof ry
    limits (-180.0 0.0)
  end
  begin
     id 28
     name rhand
     direction -1 -4.48957e-011 -2.97937e-026   
     length 0.694249   
     axis 1.90115e-014 -90 -90   XYZ
    dof rx rz
    limits (-90.0 90.0)
           (-45.0 45.0)
  end
  begin
     id 29
     name rfingers
     direction -1 -4.4898e-011 -5.95943e-026   
     length 0.559721   
     axis 3.80223e-014 -90 -90   XYZ
    dof rx
    limits (0.0 90.0)
  end
  begin
     id 30
     name rthumb
     direction -0.707107 -6.34969e-011 0.707107   
     length 0.803651   
     axis -90 -45 3.84942e-014   XYZ
    dof rx rz
    limits (-45.0 45.0)
           (-45.0 45.0)
  end
:hierarchy
  begin
    root lhipjoint rhipjoint lowerback
    lhipjoint lfemur
    lfemur ltibia
    ltibia lfoot
    lfoot ltoes
    rhipjoint rfemur
    rfemur rtibia
    rtibia rfoot
    rfoot rtoes
    lowerback upperback
    upperback thorax
    thorax lowerneck lclavicle rclavicle
    lowerneck upperneck
    upperneck head
    lclavicle lhumerus
    lhumerus lradius
    lradius lwrist
    lwrist lhand lthumb
    lhand lfingers
    rclavicle rhumerus
    rhumerus rradius
    rradius rwrist
    rwrist rhand rthumb
    rhand rfingers
  end

#!OML:ASF H:\Terrain\Walking\May29\JustinRory\rory.ASF
:FULLY-SPECIFIED
:DEGREES
66
root 10.0115 18.1414 -15.773 9.627 77.4581 5.88469
lowerback -4.37424 -1.4876 -6.42677
upperback 0.552028 -1.56026 -1.52487
thorax 3.16048 -0.862751 1.91349
lowerneck 3.61704 -18.9177 -17.5484
upperneck 17.8712 -28.7845 17.74
head 10.361 -13.798 5.39842
rclavicle -1.88348e-014 -1.43125e-014
rhumerus -30.9691 -19.8096 -67.2245
rradius 24.4983
rwrist 15.6619
rhand -9.43053 33.9869
rfingers 7.12502
rthumb 16.532 4.67118
lclavicle -1.88348e-014 -1.43125e-014
lhumerus -37.3539 20.0342 73.5783
lradius 29.2077
lwrist 2.97149
lhand -24.9144 19.9571
lfingers 7.12502
lthumb 1.59425 49.9309
rfemur -8.81972 14.5539 12.6916
rtibia 23.6376
rfoot -14.3267 -21.0541
rtoes 11.17
lfemur -5.98895 -11.4138 -17.8959
ltibia 19.1946
lfoot -16.2376 2.51252
ltoes -12.0927
67
root 10.0137 18.1474 -15.771 9.20826 77.5522 5.46725
lowerback -4.36431 -1.44937 -6.35564
upperback 0.572666 -1.51386 -1.51516
thorax 3.17069 -0.839464 1.88736
lowerneck 3.60706 -18.9802 -17.4324
upperneck 17.8368 -28.8513 17.6748
head 10.3331 -13.8267 5.34935
rclavicle -1.97791e-014 7.95139e-015
rhumerus -31.0077 -19.6601 -67.3148
rradius 24.5378
rwrist 15.458
rhand -10.6712 33.1603
rfingers 7.12502
rthumb 15.3372 3.74913
lclavicle -1.97791e-014 7.95139e-015
lhumerus -37.2693 20.0791 73.568
lradius 29.1909
lwrist 2.85128
lhand -25.2026 20.0269
lfingers 7.12502
lthumb 1.31585 50.0026
rfemur -8.8051 14.5642 12.8338
rtibia 23.7077
rfoot -14.3664 -21.1811
rtoes 11.5776
lfemur -5.95795 -11.5433 -17.7177
ltibia 19.0987
lfoot -16.2293 2.2267
ltoes -9.89702
68
root 10.0162 18.1527 -15.7688 9.44358 77.6412 5.79829
lowerback -4.27203 -1.94763 -6.61401
upperback 0.616356 -2.18723 -1.10383
thorax 3.24504 -1.1879 2.40601
lowerneck 3.17152 -18.5169 -18.5743
upperneck 18.0144 -28.181 17.6931
head 10.524 -13.5532 5.57363
rclavicle 4.65653e-014 -7.95139e-016
rhumerus -30.0414 -17.9635 -67.6777
rradius 24.3434
rwrist 15.3739
rhand -11.2047 32.7064
rfingers 7.12502
rthumb 14.8233 3.25659
lclavicle 4.65653e-014 -7.95139e-016
lhumerus -37.8423 21.8787 73.3279
lradius 29.3465
lwrist 2.49068
lhand -25.3798 20.1338
lfingers 7.12502
lthumb 1.14474 50.1105
rfemur -8.70515 14.5136 12.8167
rtibia 23.7944
rfoot -14.3491 -21.2368
rtoes 11.2682
lfemur -5.82207 -11.8104 -17.743
ltibia 18.9852
lfoot -16.2976 2.03333
ltoes -7.20055
69
root 10.0157 18.1449 -15.7686 9.97813 77.6925 6.38051
lowerback -4.32329 -1.59434 -6.74125
upperback 0.590466 -1.68824 -1.48581
thorax 3.19361 -0.933575 2.11962
lowerneck 3.95873 -18.7442 -17.56
upperneck 17.4421 -28.5496 17.9663
head 10.1396 -13.7195 5.56565
rclavicle 1.59028e-015 1.27222e-014
rhumerus -30.8797 -19.3544 -67.4776
rradius 24.4187
rwrist 15.5588
rhand -10.9107 32.6847
rfingers 7.12502
rthumb 15.1066 3.25601
lclavicle 1.59028e-015 1.27222e-014
lhumerus -37.503 20.391 73.3509
lradius 29.2584
lwrist 2.6178
lhand -25.1977 20.0034
lfingers 7.12502
lthumb 1.32065 49.979
rfemur -8.65798 14.6211 12.712
rtibia 23.8498
rfoot -14.4395 -21.3171
rtoes 11.063
lfemur -5.75056 -11.4212 -17.9017
ltibia 18.9204
lfoot -16.1377 1.95643
ltoes -9.79619
70
root 10.0161 18.1387 -15.7739 11.0597 77.753 7.45946
lowerback -4.32094 -1.51799 -6.86525
upperback 0.563305 -1.56962 -1.7148
thorax 3.15114 -0.870779 1.96137
lowerneck 4.02131 -18.8461 -17.0762
upperneck 17.442 -28.6866 17.9379
head 10.0742 -13.7593 5.48494
rclavicle 1.53561e-014 8.74653e-015
rhumerus -31.133 -19.7259 -67.5076
rradius 24.4529
rwrist 15.437
rhand -10.7303 32.5597
rfingers 7.12502
rthumb 15.2803 3.14415
lclavicle 1.53561e-014 8.74653e-015
lhumerus -37.4042 19.888 73.2415
lradius 29.2592
lwrist 2.81648
lhand -24.7673 19.7098
lfingers 7.12502
lthumb 1.73632 49.6824
rfemur -8.67895 14.5592 12.4463
rtibia 23.8981
rfoot -14.5151 -21.2953
rtoes 10.8083
lfemur -5.75472 -11.0888 -18.1911
ltibia 18.8671
lfoot -15.9494 1.99193
ltoes -13.2596
71
root 10.0186 18.1397 -15.7791 12.2236 77.7876 8.61584
lowerback -4.36495 -1.48692 -7.01302
upperback 0.600959 -1.51143 -1.7576
thorax 3.21344 -0.845968 2.00191
lowerneck 3.92549 -18.9039 -17.1409
upperneck 17.4045 -28.7614 17.969
head 10.1083 -13.7902 5.47421
rclavicle 4.03533e-014 -7.95139e-016
rhumerus -31.0911 -19.8645 -67.3535
rradius 24.4507
rwrist 15.3937
rhand -10.7097 32.5345
rfingers 7.12502
rthumb 15.3001 3.12039
lclavicle 4.03533e-014 -7.95139e-016
lhumerus -37.3447 19.8853 73.3827
lradius 29.4316
lwrist 2.85134
lhand -24.6016 19.7982
lfingers 7.12502
lthumb 1.89635 49.7695
rfemur -8.71746 14.1043 12.1293
rtibia 23.9047
rfoot -14.4499 -20.9802
rtoes 10.4873
lfemur -5.77917 -11.1291 -18.4749
ltibia 18.8563
lfoot -15.9255 2.03588
ltoes -13.661
72
root 10.0211 18.1472 -15.7784 11.8652 77.8007 8.23812
lowerback -4.37004 -1.9584 -7.05756
upperback 0.659861 -2.15659 -1.27988
thorax 3.35421 -1.18093 2.4687
lowerneck 3.05731 -18.5124 -18.3422
upperneck 17.9377 -28.171 17.7985
head 10.496 -13.5222 5.57524
rclavicle 1.63003e-014 1.11319e-014
rhumerus -30.0213 -18.4217 -67.5487
rradius 24.2842
rwrist 15.3544
rhand -10.4198 32.523
rfingers 7.12502
rthumb 15.5794 3.13051
lclavicle 1.63003e-014 1.11319e-014
lhumerus -37.8589 21.259 73.471
lradius 29.846
lwrist 3.25614
lhand -24.8693 19.9615
lfingers 7.12502
lthumb 1.63778 49.935
rfemur -8.70789 13.9852 12.2117
rtibia 23.8547
rfoot -14.4618 -20.874
rtoes 10.7763
lfemur -5.81233 -11.526 -18.3567
ltibia 18.9069
lfoot -16.0511 2.04052
ltoes -10.9136
